solid Mount
facet normal 0.0 0.0 -1.0
outer loop
vertex 0.24504092768957575 3.887508243865283 0.0
vertex 0.4418913213903614 3.4938074564637076 0.0
vertex 0.24504092768957503 3.4938074564637076 0.0
endloop
endfacet
facet normal 0.0 0.0 -1.0
outer loop
vertex 0.4418913213903614 3.4938074564637076 0.0
vertex 0.24504092768957575 3.887508243865283 0.0
vertex 0.44189132139036374 3.887508243865283 0.0
endloop
endfacet
facet normal 0.0 0.0 -1.0
outer loop
vertex 2.224409448818897 1.1113715334609673 0.0
vertex 1.7125984251968511 0.20585972243734416 0.0
vertex 1.7125984251968511 1.1113715334609673 0.0
endloop
endfacet
facet normal 0.0 0.0 -1.0
outer loop
vertex 1.7125984251968511 0.20585972243734416 0.0
vertex 2.224409448818897 1.1113715334609673 0.0
vertex 2.224409448818897 0.20585972243734416 0.0
endloop
endfacet
facet normal 0.0 0.0 -1.0
outer loop
vertex 3.444881889763779 2.6771653543307092 0.0
vertex 3.248031496062992 1.4960629921259847 0.0
vertex 3.248031496062992 2.6771653543307092 0.0
endloop
endfacet
facet normal 0.0 0.0 -1.0
outer loop
vertex 3.248031496062992 1.4960629921259847 0.0
vertex 3.444881889763779 2.6771653543307092 0.0
vertex 3.444881889763779 1.4960629921259847 0.0
endloop
endfacet
facet normal 0.0 0.0 -1.0
outer loop
vertex 3.248031496062992 1.4960629921259847 0.0
vertex 0.820279705306184 0.9123337489622702 0.0
vertex 0.6889763779527559 1.4960629921259847 0.0
endloop
endfacet
facet normal 0.0 0.0 -1.0
outer loop
vertex 0.820279705306184 0.9123337489622702 0.0
vertex 3.248031496062992 1.4960629921259847 0.0
vertex 1.7125984251968511 1.1113715334609673 0.0
endloop
endfacet
facet normal 0.0 0.0 -1.0
outer loop
vertex 0.820279705306184 0.9123337489622702 0.0
vertex 1.7125984251968511 1.1113715334609673 0.0
vertex 1.2139804927077593 0.9123337489622702 0.0
endloop
endfacet
facet normal 0.0 0.0 -1.0
outer loop
vertex 1.2139804927077593 0.9123337489622702 0.0
vertex 1.7125984251968511 1.1113715334609673 0.0
vertex 1.2139804927077593 0.7154833552614829 0.0
endloop
endfacet
facet normal 0.0 0.0 -1.0
outer loop
vertex 1.7125984251968511 1.1113715334609673 0.0
vertex 3.248031496062992 1.4960629921259847 0.0
vertex 2.224409448818897 1.1113715334609673 0.0
endloop
endfacet
facet normal 0.0 0.0 -1.0
outer loop
vertex 2.224409448818897 1.1113715334609673 0.0
vertex 3.248031496062992 1.4960629921259847 0.0
vertex 2.224409448818897 0.20585972243734416 0.0
endloop
endfacet
facet normal 0.0 0.0 -1.0
outer loop
vertex 0.0 6.1023622047244075 0.0
vertex 0.24504092768957603 5.056283058165189 0.0
vertex 0.0 0.0 0.0
endloop
endfacet
facet normal 0.0 0.0 -1.0
outer loop
vertex 0.24504092768957603 5.056283058165189 0.0
vertex 0.0 6.1023622047244075 0.0
vertex 3.937007874015748 6.1023622047244075 0.0
endloop
endfacet
facet normal 0.0 0.0 -1.0
outer loop
vertex 0.0 0.0 0.0
vertex 0.24504092768957603 5.056283058165189 0.0
vertex 0.2450409276895753 4.662582270763613 0.0
endloop
endfacet
facet normal 0.0 0.0 -1.0
outer loop
vertex 0.0 0.0 0.0
vertex 0.2450409276895753 4.662582270763613 0.0
vertex 0.24504092768957503 3.4938074564637076 0.0
endloop
endfacet
facet normal 0.0 0.0 -1.0
outer loop
vertex 0.24504092768957603 5.056283058165189 0.0
vertex 3.937007874015748 6.1023622047244075 0.0
vertex 0.441891321390364 5.056283058165189 0.0
endloop
endfacet
facet normal 0.0 0.0 -1.0
outer loop
vertex 0.441891321390364 5.056283058165189 0.0
vertex 3.937007874015748 6.1023622047244075 0.0
vertex 0.9842519685039366 4.409448818897639 0.0
endloop
endfacet
facet normal 0.0 0.0 -1.0
outer loop
vertex 0.441891321390364 5.056283058165189 0.0
vertex 0.9842519685039366 4.409448818897639 0.0
vertex 0.4921259842519683 2.6771653543307092 0.0
endloop
endfacet
facet normal 0.0 0.0 -1.0
outer loop
vertex 0.4921259842519683 2.6771653543307092 0.0
vertex 0.9842519685039366 4.409448818897639 0.0
vertex 0.6889763779527558 2.6771653543307092 0.0
endloop
endfacet
facet normal 0.0 0.0 -1.0
outer loop
vertex 0.9842519685039366 4.409448818897639 0.0
vertex 3.937007874015748 6.1023622047244075 0.0
vertex 1.286699775491224 4.409448818897639 0.0
endloop
endfacet
facet normal 0.0 0.0 -1.0
outer loop
vertex 1.286699775491224 4.409448818897639 0.0
vertex 3.937007874015748 6.1023622047244075 0.0
vertex 2.074101350294373 4.409448818897639 0.0
endloop
endfacet
facet normal 0.0 0.0 -1.0
outer loop
vertex 2.074101350294373 4.409448818897639 0.0
vertex 3.937007874015748 6.1023622047244075 0.0
vertex 2.952755905511811 4.409448818897639 0.0
endloop
endfacet
facet normal 0.0 0.0 -1.0
outer loop
vertex 2.952755905511811 4.409448818897639 0.0
vertex 3.937007874015748 6.1023622047244075 0.0
vertex 2.952755905511811 2.6771653543307092 0.0
endloop
endfacet
facet normal 0.0 0.0 -1.0
outer loop
vertex 2.952755905511811 2.6771653543307092 0.0
vertex 3.937007874015748 6.1023622047244075 0.0
vertex 3.248031496062992 2.6771653543307092 0.0
endloop
endfacet
facet normal 0.0 0.0 -1.0
outer loop
vertex 3.248031496062992 2.6771653543307092 0.0
vertex 3.937007874015748 6.1023622047244075 0.0
vertex 3.444881889763779 2.6771653543307092 0.0
endloop
endfacet
facet normal 0.0 0.0 -1.0
outer loop
vertex 3.444881889763779 2.6771653543307092 0.0
vertex 3.937007874015748 6.1023622047244075 0.0
vertex 3.444881889763779 1.4960629921259847 0.0
endloop
endfacet
facet normal 0.0 0.0 -1.0
outer loop
vertex 0.0 0.0 0.0
vertex 1.7125984251968511 0.20585972243734416 0.0
vertex 3.937007874015748 0.0 0.0
endloop
endfacet
facet normal 0.0 0.0 -1.0
outer loop
vertex 1.7125984251968511 0.20585972243734416 0.0
vertex 0.0 0.0 0.0
vertex 0.820279705306184 0.7154833552614829 0.0
endloop
endfacet
facet normal 0.0 0.0 -1.0
outer loop
vertex 0.820279705306184 0.7154833552614829 0.0
vertex 0.0 0.0 0.0
vertex 0.4921259842519683 1.4960629921259847 0.0
endloop
endfacet
facet normal 0.0 0.0 -1.0
outer loop
vertex 0.4921259842519683 1.4960629921259847 0.0
vertex 0.0 0.0 0.0
vertex 0.24504092768957503 3.4938074564637076 0.0
endloop
endfacet
facet normal 0.0 0.0 -1.0
outer loop
vertex 0.4921259842519683 1.4960629921259847 0.0
vertex 0.24504092768957503 3.4938074564637076 0.0
vertex 0.4418913213903614 3.4938074564637076 0.0
endloop
endfacet
facet normal 0.0 0.0 -1.0
outer loop
vertex 0.4921259842519683 1.4960629921259847 0.0
vertex 0.4418913213903614 3.4938074564637076 0.0
vertex 0.44189132139036374 3.887508243865283 0.0
endloop
endfacet
facet normal 0.0 0.0 -1.0
outer loop
vertex 0.4921259842519683 1.4960629921259847 0.0
vertex 0.44189132139036374 3.887508243865283 0.0
vertex 0.441891321390364 5.056283058165189 0.0
endloop
endfacet
facet normal 0.0 0.0 -1.0
outer loop
vertex 0.4921259842519683 1.4960629921259847 0.0
vertex 0.441891321390364 5.056283058165189 0.0
vertex 0.4921259842519683 2.6771653543307092 0.0
endloop
endfacet
facet normal 0.0 0.0 -1.0
outer loop
vertex 0.820279705306184 0.7154833552614829 0.0
vertex 0.4921259842519683 1.4960629921259847 0.0
vertex 0.6889763779527559 1.4960629921259847 0.0
endloop
endfacet
facet normal 0.0 0.0 -1.0
outer loop
vertex 0.820279705306184 0.7154833552614829 0.0
vertex 0.6889763779527559 1.4960629921259847 0.0
vertex 0.820279705306184 0.9123337489622702 0.0
endloop
endfacet
facet normal 0.0 0.0 -1.0
outer loop
vertex 1.7125984251968511 0.20585972243734416 0.0
vertex 0.820279705306184 0.7154833552614829 0.0
vertex 1.2139804927077593 0.7154833552614829 0.0
endloop
endfacet
facet normal 0.0 0.0 -1.0
outer loop
vertex 1.7125984251968511 0.20585972243734416 0.0
vertex 1.2139804927077593 0.7154833552614829 0.0
vertex 1.7125984251968511 1.1113715334609673 0.0
endloop
endfacet
facet normal 0.0 0.0 -1.0
outer loop
vertex 3.937007874015748 0.0 0.0
vertex 1.7125984251968511 0.20585972243734416 0.0
vertex 2.224409448818897 0.20585972243734416 0.0
endloop
endfacet
facet normal 0.0 0.0 -1.0
outer loop
vertex 3.937007874015748 0.0 0.0
vertex 2.224409448818897 0.20585972243734416 0.0
vertex 3.248031496062992 1.4960629921259847 0.0
endloop
endfacet
facet normal 0.0 0.0 -1.0
outer loop
vertex 3.937007874015748 0.0 0.0
vertex 3.248031496062992 1.4960629921259847 0.0
vertex 3.444881889763779 1.4960629921259847 0.0
endloop
endfacet
facet normal 0.0 0.0 -1.0
outer loop
vertex 3.937007874015748 0.0 0.0
vertex 3.444881889763779 1.4960629921259847 0.0
vertex 3.937007874015748 6.1023622047244075 0.0
endloop
endfacet
facet normal 0.0 0.0 -1.0
outer loop
vertex 0.9842519685039366 2.6771653543307092 0.0
vertex 0.6889763779527558 2.6771653543307092 0.0
vertex 0.9842519685039366 4.409448818897639 0.0
endloop
endfacet
facet normal 0.0 0.0 -1.0
outer loop
vertex 0.2450409276895753 4.662582270763613 0.0
vertex 0.24504092768957575 3.887508243865283 0.0
vertex 0.24504092768957503 3.4938074564637076 0.0
endloop
endfacet
facet normal 0.0 0.0 -1.0
outer loop
vertex 0.24504092768957575 3.887508243865283 0.0
vertex 0.2450409276895753 4.662582270763613 0.0
vertex 0.4418913213903617 4.662582270763613 0.0
endloop
endfacet
facet normal 0.0 0.0 -1.0
outer loop
vertex 0.24504092768957575 3.887508243865283 0.0
vertex 0.4418913213903617 4.662582270763613 0.0
vertex 0.44189132139036374 3.887508243865283 0.0
endloop
endfacet
facet normal 0.0 0.0 -1.0
outer loop
vertex 0.44189132139036374 3.887508243865283 0.0
vertex 0.4418913213903617 4.662582270763613 0.0
vertex 0.441891321390364 5.056283058165189 0.0
endloop
endfacet
facet normal 0.0 0.0 -1.0
outer loop
vertex 0.24504092768957603 5.056283058165189 0.0
vertex 0.4418913213903617 4.662582270763613 0.0
vertex 0.2450409276895753 4.662582270763613 0.0
endloop
endfacet
facet normal 0.0 0.0 -1.0
outer loop
vertex 0.4418913213903617 4.662582270763613 0.0
vertex 0.24504092768957603 5.056283058165189 0.0
vertex 0.441891321390364 5.056283058165189 0.0
endloop
endfacet
facet normal 0.0 0.0 -1.0
outer loop
vertex 0.6889763779527558 2.6771653543307092 0.0
vertex 0.4921259842519683 1.4960629921259847 0.0
vertex 0.4921259842519683 2.6771653543307092 0.0
endloop
endfacet
facet normal 0.0 0.0 -1.0
outer loop
vertex 0.4921259842519683 1.4960629921259847 0.0
vertex 0.6889763779527558 2.6771653543307092 0.0
vertex 0.6889763779527559 1.4960629921259847 0.0
endloop
endfacet
facet normal 0.0 0.0 -1.0
outer loop
vertex 1.2139804927077593 0.9123337489622702 0.0
vertex 0.820279705306184 0.7154833552614829 0.0
vertex 0.820279705306184 0.9123337489622702 0.0
endloop
endfacet
facet normal 0.0 0.0 -1.0
outer loop
vertex 0.820279705306184 0.7154833552614829 0.0
vertex 1.2139804927077593 0.9123337489622702 0.0
vertex 1.2139804927077593 0.7154833552614829 0.0
endloop
endfacet
endsolid Mount
