solid Mount
facet normal 0.0 0.0 -1.0
outer loop
vertex 6.224039563315224 98.74270939417818 0.0
vertex 11.224039563315179 88.74270939417816 0.0
vertex 6.2240395633152055 88.74270939417816 0.0
endloop
endfacet
facet normal 0.0 0.0 -1.0
outer loop
vertex 11.224039563315179 88.74270939417816 0.0
vertex 6.224039563315224 98.74270939417818 0.0
vertex 11.22403956331524 98.74270939417818 0.0
endloop
endfacet
facet normal 0.0 0.0 -1.0
outer loop
vertex 56.49999999999998 28.22883694990857 0.0
vertex 43.500000000000014 5.228836949908541 0.0
vertex 43.500000000000014 28.22883694990857 0.0
endloop
endfacet
facet normal 0.0 0.0 -1.0
outer loop
vertex 43.500000000000014 5.228836949908541 0.0
vertex 56.49999999999998 28.22883694990857 0.0
vertex 56.49999999999998 5.228836949908541 0.0
endloop
endfacet
facet normal 0.0 0.0 -1.0
outer loop
vertex 12.499999999999995 38.00000000000001 0.0
vertex 43.500000000000014 28.22883694990857 0.0
vertex 20.835104514777072 23.173277223641662 0.0
endloop
endfacet
facet normal 0.0 0.0 -1.0
outer loop
vertex 43.500000000000014 28.22883694990857 0.0
vertex 12.499999999999995 38.00000000000001 0.0
vertex 87.49999999999999 38.00000000000001 0.0
endloop
endfacet
facet normal 0.0 0.0 -1.0
outer loop
vertex 20.835104514777072 23.173277223641662 0.0
vertex 43.500000000000014 28.22883694990857 0.0
vertex 30.835104514777086 23.173277223641662 0.0
endloop
endfacet
facet normal 0.0 0.0 -1.0
outer loop
vertex 30.835104514777086 23.173277223641662 0.0
vertex 43.500000000000014 28.22883694990857 0.0
vertex 30.835104514777086 18.173277223641666 0.0
endloop
endfacet
facet normal 0.0 0.0 -1.0
outer loop
vertex 43.500000000000014 28.22883694990857 0.0
vertex 87.49999999999999 38.00000000000001 0.0
vertex 56.49999999999998 28.22883694990857 0.0
endloop
endfacet
facet normal 0.0 0.0 -1.0
outer loop
vertex 56.49999999999998 28.22883694990857 0.0
vertex 87.49999999999999 38.00000000000001 0.0
vertex 56.49999999999998 5.228836949908541 0.0
endloop
endfacet
facet normal 0.0 0.0 -1.0
outer loop
vertex 0.0 154.99999999999994 0.0
vertex 6.22403956331523 128.4295896773958 0.0
vertex 0.0 0.0 0.0
endloop
endfacet
facet normal 0.0 0.0 -1.0
outer loop
vertex 6.22403956331523 128.4295896773958 0.0
vertex 0.0 154.99999999999994 0.0
vertex 100.0 154.99999999999994 0.0
endloop
endfacet
facet normal 0.0 0.0 -1.0
outer loop
vertex 0.0 0.0 0.0
vertex 6.22403956331523 128.4295896773958 0.0
vertex 6.224039563315213 118.42958967739575 0.0
endloop
endfacet
facet normal 0.0 0.0 -1.0
outer loop
vertex 0.0 0.0 0.0
vertex 6.224039563315213 118.42958967739575 0.0
vertex 6.2240395633152055 88.74270939417816 0.0
endloop
endfacet
facet normal 0.0 0.0 -1.0
outer loop
vertex 6.22403956331523 128.4295896773958 0.0
vertex 100.0 154.99999999999994 0.0
vertex 11.224039563315246 128.4295896773958 0.0
endloop
endfacet
facet normal 0.0 0.0 -1.0
outer loop
vertex 11.224039563315246 128.4295896773958 0.0
vertex 100.0 154.99999999999994 0.0
vertex 40.00000000000001 119.99999999999991 0.0
endloop
endfacet
facet normal 0.0 0.0 -1.0
outer loop
vertex 11.224039563315246 128.4295896773958 0.0
vertex 40.00000000000001 119.99999999999991 0.0
vertex 12.499999999999995 69.99999999999996 0.0
endloop
endfacet
facet normal 0.0 0.0 -1.0
outer loop
vertex 40.00000000000001 119.99999999999991 0.0
vertex 100.0 154.99999999999994 0.0
vertex 59.99999999999999 119.99999999999991 0.0
endloop
endfacet
facet normal 0.0 0.0 -1.0
outer loop
vertex 59.99999999999999 119.99999999999991 0.0
vertex 100.0 154.99999999999994 0.0
vertex 59.99999999999999 79.99999999999994 0.0
endloop
endfacet
facet normal 0.0 0.0 -1.0
outer loop
vertex 59.99999999999999 79.99999999999994 0.0
vertex 100.0 154.99999999999994 0.0
vertex 87.49999999999999 69.99999999999996 0.0
endloop
endfacet
facet normal 0.0 0.0 -1.0
outer loop
vertex 87.49999999999999 69.99999999999996 0.0
vertex 100.0 154.99999999999994 0.0
vertex 87.49999999999999 38.00000000000001 0.0
endloop
endfacet
facet normal 0.0 0.0 -1.0
outer loop
vertex 0.0 0.0 0.0
vertex 43.500000000000014 5.228836949908541 0.0
vertex 100.0 0.0 0.0
endloop
endfacet
facet normal 0.0 0.0 -1.0
outer loop
vertex 43.500000000000014 5.228836949908541 0.0
vertex 0.0 0.0 0.0
vertex 20.835104514777072 18.173277223641666 0.0
endloop
endfacet
facet normal 0.0 0.0 -1.0
outer loop
vertex 20.835104514777072 18.173277223641666 0.0
vertex 0.0 0.0 0.0
vertex 12.499999999999995 38.00000000000001 0.0
endloop
endfacet
facet normal 0.0 0.0 -1.0
outer loop
vertex 12.499999999999995 38.00000000000001 0.0
vertex 0.0 0.0 0.0
vertex 6.2240395633152055 88.74270939417816 0.0
endloop
endfacet
facet normal 0.0 0.0 -1.0
outer loop
vertex 12.499999999999995 38.00000000000001 0.0
vertex 6.2240395633152055 88.74270939417816 0.0
vertex 11.224039563315179 88.74270939417816 0.0
endloop
endfacet
facet normal 0.0 0.0 -1.0
outer loop
vertex 12.499999999999995 38.00000000000001 0.0
vertex 11.224039563315179 88.74270939417816 0.0
vertex 11.22403956331524 98.74270939417818 0.0
endloop
endfacet
facet normal 0.0 0.0 -1.0
outer loop
vertex 12.499999999999995 38.00000000000001 0.0
vertex 11.22403956331524 98.74270939417818 0.0
vertex 11.224039563315246 128.4295896773958 0.0
endloop
endfacet
facet normal 0.0 0.0 -1.0
outer loop
vertex 12.499999999999995 38.00000000000001 0.0
vertex 11.224039563315246 128.4295896773958 0.0
vertex 12.499999999999995 69.99999999999996 0.0
endloop
endfacet
facet normal 0.0 0.0 -1.0
outer loop
vertex 20.835104514777072 18.173277223641666 0.0
vertex 12.499999999999995 38.00000000000001 0.0
vertex 20.835104514777072 23.173277223641662 0.0
endloop
endfacet
facet normal 0.0 0.0 -1.0
outer loop
vertex 43.500000000000014 5.228836949908541 0.0
vertex 20.835104514777072 18.173277223641666 0.0
vertex 30.835104514777086 18.173277223641666 0.0
endloop
endfacet
facet normal 0.0 0.0 -1.0
outer loop
vertex 43.500000000000014 5.228836949908541 0.0
vertex 30.835104514777086 18.173277223641666 0.0
vertex 43.500000000000014 28.22883694990857 0.0
endloop
endfacet
facet normal 0.0 0.0 -1.0
outer loop
vertex 100.0 0.0 0.0
vertex 43.500000000000014 5.228836949908541 0.0
vertex 56.49999999999998 5.228836949908541 0.0
endloop
endfacet
facet normal 0.0 0.0 -1.0
outer loop
vertex 100.0 0.0 0.0
vertex 56.49999999999998 5.228836949908541 0.0
vertex 87.49999999999999 38.00000000000001 0.0
endloop
endfacet
facet normal 0.0 0.0 -1.0
outer loop
vertex 100.0 0.0 0.0
vertex 87.49999999999999 38.00000000000001 0.0
vertex 100.0 154.99999999999994 0.0
endloop
endfacet
facet normal 0.0 0.0 -1.0
outer loop
vertex 12.499999999999995 69.99999999999996 0.0
vertex 40.00000000000001 79.99999999999994 0.0
vertex 87.49999999999999 69.99999999999996 0.0
endloop
endfacet
facet normal 0.0 0.0 -1.0
outer loop
vertex 40.00000000000001 79.99999999999994 0.0
vertex 12.499999999999995 69.99999999999996 0.0
vertex 40.00000000000001 119.99999999999991 0.0
endloop
endfacet
facet normal 0.0 0.0 -1.0
outer loop
vertex 87.49999999999999 69.99999999999996 0.0
vertex 40.00000000000001 79.99999999999994 0.0
vertex 59.99999999999999 79.99999999999994 0.0
endloop
endfacet
facet normal 0.0 0.0 -1.0
outer loop
vertex 6.224039563315213 118.42958967739575 0.0
vertex 6.224039563315224 98.74270939417818 0.0
vertex 6.2240395633152055 88.74270939417816 0.0
endloop
endfacet
facet normal 0.0 0.0 -1.0
outer loop
vertex 6.224039563315224 98.74270939417818 0.0
vertex 6.224039563315213 118.42958967739575 0.0
vertex 11.224039563315186 118.42958967739575 0.0
endloop
endfacet
facet normal 0.0 0.0 -1.0
outer loop
vertex 6.224039563315224 98.74270939417818 0.0
vertex 11.224039563315186 118.42958967739575 0.0
vertex 11.22403956331524 98.74270939417818 0.0
endloop
endfacet
facet normal 0.0 0.0 -1.0
outer loop
vertex 11.22403956331524 98.74270939417818 0.0
vertex 11.224039563315186 118.42958967739575 0.0
vertex 11.224039563315246 128.4295896773958 0.0
endloop
endfacet
facet normal 0.0 0.0 -1.0
outer loop
vertex 6.22403956331523 128.4295896773958 0.0
vertex 11.224039563315186 118.42958967739575 0.0
vertex 6.224039563315213 118.42958967739575 0.0
endloop
endfacet
facet normal 0.0 0.0 -1.0
outer loop
vertex 11.224039563315186 118.42958967739575 0.0
vertex 6.22403956331523 128.4295896773958 0.0
vertex 11.224039563315246 128.4295896773958 0.0
endloop
endfacet
facet normal 0.0 0.0 -1.0
outer loop
vertex 87.49999999999999 69.99999999999996 0.0
vertex 12.499999999999995 38.00000000000001 0.0
vertex 12.499999999999995 69.99999999999996 0.0
endloop
endfacet
facet normal 0.0 0.0 -1.0
outer loop
vertex 12.499999999999995 38.00000000000001 0.0
vertex 87.49999999999999 69.99999999999996 0.0
vertex 87.49999999999999 38.00000000000001 0.0
endloop
endfacet
facet normal 0.0 0.0 -1.0
outer loop
vertex 30.835104514777086 23.173277223641662 0.0
vertex 20.835104514777072 18.173277223641666 0.0
vertex 20.835104514777072 23.173277223641662 0.0
endloop
endfacet
facet normal 0.0 0.0 -1.0
outer loop
vertex 20.835104514777072 18.173277223641666 0.0
vertex 30.835104514777086 23.173277223641662 0.0
vertex 30.835104514777086 18.173277223641666 0.0
endloop
endfacet
endsolid Mount
